<svg xmlns="http://www.w3.org/2000/svg" fill="#fff" viewBox="0 0 24 24" width="24px" height="24px"><path d="M 11 0 L 11 3 L 13 3 L 13 0 L 11 0 z M 4.2070312 2.7929688 L 2.7929688 4.2070312 L 4.8925781 6.3066406 L 6.3066406 4.8925781 L 4.2070312 2.7929688 z M 19.792969 2.7929688 L 17.693359 4.8925781 L 19.107422 6.3066406 L 21.207031 4.2070312 L 19.792969 2.7929688 z M 12 5 C 8.1545455 5 5 8.1545455 5 12 C 5 15.845455 8.1545455 19 12 19 C 15.845455 19 19 15.845455 19 12 C 19 8.1545455 15.845455 5 12 5 z M 12 7 C 14.754545 7 17 9.2454545 17 12 C 17 14.754545 14.754545 17 12 17 C 9.2454545 17 7 14.754545 7 12 C 7 9.2454545 9.2454545 7 12 7 z M 0 11 L 0 13 L 3 13 L 3 11 L 0 11 z M 21 11 L 21 13 L 24 13 L 24 11 L 21 11 z M 4.8925781 17.693359 L 2.7929688 19.792969 L 4.2070312 21.207031 L 6.3066406 19.107422 L 4.8925781 17.693359 z M 19.107422 17.693359 L 17.693359 19.107422 L 19.792969 21.207031 L 21.207031 19.792969 L 19.107422 17.693359 z M 11 21 L 11 24 L 13 24 L 13 21 L 11 21 z"/></svg>